<mxfile host="Electron" modified="2024-03-01T23:16:36.755Z" agent="Mozilla/5.0 (Windows NT 10.0; Win64; x64) AppleWebKit/537.36 (KHTML, like Gecko) draw.io/23.1.5 Chrome/120.0.6099.109 Electron/28.1.0 Safari/537.36" etag="e8jlTPJH2cLZDPlutxMy" version="23.1.5" type="device">
  <diagram name="Page-1" id="bX2B7VvCiEKAcAjYfhx0">
    <mxGraphModel dx="1793" dy="702" grid="1" gridSize="10" guides="1" tooltips="1" connect="1" arrows="1" fold="1" page="1" pageScale="1" pageWidth="850" pageHeight="1100" math="0" shadow="0">
      <root>
        <mxCell id="0" />
        <mxCell id="1" parent="0" />
        <mxCell id="5PsoJogA0Ilw1T6cmekE-26" value="" style="group" parent="1" vertex="1" connectable="0">
          <mxGeometry x="460" y="240" width="220" height="570" as="geometry" />
        </mxCell>
        <mxCell id="5PsoJogA0Ilw1T6cmekE-7" value="MongoDB" style="rounded=0;whiteSpace=wrap;html=1;verticalAlign=bottom;labelPosition=center;verticalLabelPosition=top;align=center;fontSize=20;fontStyle=1" parent="5PsoJogA0Ilw1T6cmekE-26" vertex="1">
          <mxGeometry width="220" height="570" as="geometry" />
        </mxCell>
        <mxCell id="5PsoJogA0Ilw1T6cmekE-5" value="&lt;font style=&quot;font-size: 12px;&quot;&gt;&lt;b&gt;PurchaseOrderEvent&lt;/b&gt;&lt;br&gt;&lt;/font&gt;" style="shape=cylinder3;whiteSpace=wrap;html=1;boundedLbl=1;backgroundOutline=1;size=15;" parent="5PsoJogA0Ilw1T6cmekE-26" vertex="1">
          <mxGeometry x="37.5" y="50" width="140" height="80" as="geometry" />
        </mxCell>
        <mxCell id="5PsoJogA0Ilw1T6cmekE-15" value="&lt;font style=&quot;font-size: 12px;&quot;&gt;&lt;b&gt;ProductStock&lt;/b&gt;&lt;br&gt;&lt;/font&gt;" style="shape=cylinder3;whiteSpace=wrap;html=1;boundedLbl=1;backgroundOutline=1;size=15;" parent="5PsoJogA0Ilw1T6cmekE-26" vertex="1">
          <mxGeometry x="57.5" y="260" width="100" height="80" as="geometry" />
        </mxCell>
        <mxCell id="5PsoJogA0Ilw1T6cmekE-18" value="Purchaseorder" style="shape=cylinder3;whiteSpace=wrap;html=1;boundedLbl=1;backgroundOutline=1;size=15;" parent="5PsoJogA0Ilw1T6cmekE-26" vertex="1">
          <mxGeometry x="50" y="480" width="115" height="80" as="geometry" />
        </mxCell>
        <mxCell id="5PsoJogA0Ilw1T6cmekE-8" style="edgeStyle=orthogonalEdgeStyle;rounded=0;orthogonalLoop=1;jettySize=auto;html=1;" parent="1" source="5PsoJogA0Ilw1T6cmekE-1" target="5PsoJogA0Ilw1T6cmekE-5" edge="1">
          <mxGeometry relative="1" as="geometry" />
        </mxCell>
        <mxCell id="5PsoJogA0Ilw1T6cmekE-11" style="edgeStyle=orthogonalEdgeStyle;rounded=0;orthogonalLoop=1;jettySize=auto;html=1;" parent="1" source="5PsoJogA0Ilw1T6cmekE-1" target="5PsoJogA0Ilw1T6cmekE-10" edge="1">
          <mxGeometry relative="1" as="geometry" />
        </mxCell>
        <mxCell id="5PsoJogA0Ilw1T6cmekE-12" value="PurchaseOrder with products" style="edgeLabel;html=1;align=center;verticalAlign=middle;resizable=0;points=[];" parent="5PsoJogA0Ilw1T6cmekE-11" vertex="1" connectable="0">
          <mxGeometry x="0.0762" y="-4" relative="1" as="geometry">
            <mxPoint as="offset" />
          </mxGeometry>
        </mxCell>
        <mxCell id="5PsoJogA0Ilw1T6cmekE-1" value="&lt;font style=&quot;&quot;&gt;&lt;b style=&quot;&quot;&gt;&lt;font style=&quot;font-size: 15px;&quot;&gt;Order&lt;/font&gt;&lt;/b&gt;&lt;br&gt;SpringWebflux&lt;br&gt;REST&lt;br&gt;&lt;/font&gt;" style="whiteSpace=wrap;html=1;aspect=fixed;" parent="1" vertex="1">
          <mxGeometry x="185" y="280" width="100" height="100" as="geometry" />
        </mxCell>
        <mxCell id="5PsoJogA0Ilw1T6cmekE-3" style="edgeStyle=orthogonalEdgeStyle;rounded=0;orthogonalLoop=1;jettySize=auto;html=1;entryX=0.5;entryY=0;entryDx=0;entryDy=0;" parent="1" source="5PsoJogA0Ilw1T6cmekE-2" target="5PsoJogA0Ilw1T6cmekE-1" edge="1">
          <mxGeometry relative="1" as="geometry" />
        </mxCell>
        <mxCell id="5PsoJogA0Ilw1T6cmekE-4" value="Create PurchaseOrder with Products" style="edgeLabel;html=1;align=center;verticalAlign=middle;resizable=0;points=[];" parent="5PsoJogA0Ilw1T6cmekE-3" vertex="1" connectable="0">
          <mxGeometry x="0.1611" y="2" relative="1" as="geometry">
            <mxPoint as="offset" />
          </mxGeometry>
        </mxCell>
        <mxCell id="5PsoJogA0Ilw1T6cmekE-2" value="Actor" style="shape=umlActor;verticalLabelPosition=bottom;verticalAlign=top;html=1;outlineConnect=0;" parent="1" vertex="1">
          <mxGeometry x="220" y="100" width="30" height="60" as="geometry" />
        </mxCell>
        <mxCell id="5PsoJogA0Ilw1T6cmekE-14" style="edgeStyle=orthogonalEdgeStyle;rounded=0;orthogonalLoop=1;jettySize=auto;html=1;" parent="1" source="5PsoJogA0Ilw1T6cmekE-10" target="5PsoJogA0Ilw1T6cmekE-13" edge="1">
          <mxGeometry relative="1" as="geometry" />
        </mxCell>
        <mxCell id="5PsoJogA0Ilw1T6cmekE-10" value="product-topic" style="sketch=0;outlineConnect=0;fontColor=#232F3E;gradientColor=none;strokeColor=#232F3E;fillColor=#ffffff;dashed=0;verticalLabelPosition=bottom;verticalAlign=top;align=center;html=1;fontSize=12;fontStyle=0;aspect=fixed;shape=mxgraph.aws4.resourceIcon;resIcon=mxgraph.aws4.topic_2;" parent="1" vertex="1">
          <mxGeometry x="205" y="420" width="60" height="60" as="geometry" />
        </mxCell>
        <mxCell id="5PsoJogA0Ilw1T6cmekE-22" style="edgeStyle=orthogonalEdgeStyle;rounded=0;orthogonalLoop=1;jettySize=auto;html=1;" parent="1" source="5PsoJogA0Ilw1T6cmekE-13" target="5PsoJogA0Ilw1T6cmekE-21" edge="1">
          <mxGeometry relative="1" as="geometry">
            <mxPoint x="235" y="630" as="targetPoint" />
          </mxGeometry>
        </mxCell>
        <mxCell id="5PsoJogA0Ilw1T6cmekE-24" value="PurchaseOrder" style="edgeLabel;html=1;align=center;verticalAlign=middle;resizable=0;points=[];" parent="5PsoJogA0Ilw1T6cmekE-22" vertex="1" connectable="0">
          <mxGeometry x="-0.3733" y="-2" relative="1" as="geometry">
            <mxPoint as="offset" />
          </mxGeometry>
        </mxCell>
        <mxCell id="5PsoJogA0Ilw1T6cmekE-28" style="edgeStyle=orthogonalEdgeStyle;rounded=0;orthogonalLoop=1;jettySize=auto;html=1;" parent="1" source="5PsoJogA0Ilw1T6cmekE-13" target="5PsoJogA0Ilw1T6cmekE-27" edge="1">
          <mxGeometry relative="1" as="geometry" />
        </mxCell>
        <mxCell id="5PsoJogA0Ilw1T6cmekE-13" value="&lt;b&gt;&lt;font style=&quot;font-size: 15px;&quot;&gt;Product&lt;/font&gt;&lt;/b&gt;&lt;br&gt;SpringCloudStream" style="rounded=0;whiteSpace=wrap;html=1;" parent="1" vertex="1">
          <mxGeometry x="175" y="520" width="120" height="60" as="geometry" />
        </mxCell>
        <mxCell id="5PsoJogA0Ilw1T6cmekE-16" style="edgeStyle=orthogonalEdgeStyle;rounded=0;orthogonalLoop=1;jettySize=auto;html=1;entryX=0;entryY=0;entryDx=0;entryDy=52.5;entryPerimeter=0;" parent="1" source="5PsoJogA0Ilw1T6cmekE-13" target="5PsoJogA0Ilw1T6cmekE-15" edge="1">
          <mxGeometry relative="1" as="geometry" />
        </mxCell>
        <mxCell id="5PsoJogA0Ilw1T6cmekE-25" value="Update Product stock" style="edgeLabel;html=1;align=center;verticalAlign=middle;resizable=0;points=[];" parent="5PsoJogA0Ilw1T6cmekE-16" vertex="1" connectable="0">
          <mxGeometry x="0.08" y="2" relative="1" as="geometry">
            <mxPoint as="offset" />
          </mxGeometry>
        </mxCell>
        <mxCell id="5PsoJogA0Ilw1T6cmekE-19" style="edgeStyle=orthogonalEdgeStyle;rounded=0;orthogonalLoop=1;jettySize=auto;html=1;entryX=0;entryY=0.5;entryDx=0;entryDy=0;entryPerimeter=0;" parent="1" source="5PsoJogA0Ilw1T6cmekE-17" target="5PsoJogA0Ilw1T6cmekE-18" edge="1">
          <mxGeometry relative="1" as="geometry">
            <mxPoint x="510" y="750" as="targetPoint" />
          </mxGeometry>
        </mxCell>
        <mxCell id="5PsoJogA0Ilw1T6cmekE-20" value="PurchaseOrder with TotalPrice" style="edgeLabel;html=1;align=center;verticalAlign=middle;resizable=0;points=[];" parent="5PsoJogA0Ilw1T6cmekE-19" vertex="1" connectable="0">
          <mxGeometry x="0.1048" y="1" relative="1" as="geometry">
            <mxPoint x="-14" y="-9" as="offset" />
          </mxGeometry>
        </mxCell>
        <mxCell id="5PsoJogA0Ilw1T6cmekE-17" value="Acoount&lt;br&gt;SpringCloudStream" style="rounded=0;whiteSpace=wrap;html=1;" parent="1" vertex="1">
          <mxGeometry x="175" y="730" width="120" height="60" as="geometry" />
        </mxCell>
        <mxCell id="5PsoJogA0Ilw1T6cmekE-23" style="edgeStyle=orthogonalEdgeStyle;rounded=0;orthogonalLoop=1;jettySize=auto;html=1;" parent="1" source="5PsoJogA0Ilw1T6cmekE-21" target="5PsoJogA0Ilw1T6cmekE-17" edge="1">
          <mxGeometry relative="1" as="geometry" />
        </mxCell>
        <mxCell id="5PsoJogA0Ilw1T6cmekE-21" value="account-product-topic" style="sketch=0;outlineConnect=0;fontColor=#232F3E;gradientColor=none;strokeColor=#232F3E;fillColor=#ffffff;dashed=0;verticalLabelPosition=bottom;verticalAlign=top;align=center;html=1;fontSize=12;fontStyle=0;aspect=fixed;shape=mxgraph.aws4.resourceIcon;resIcon=mxgraph.aws4.topic_2;" parent="1" vertex="1">
          <mxGeometry x="205" y="630" width="60" height="60" as="geometry" />
        </mxCell>
        <mxCell id="5PsoJogA0Ilw1T6cmekE-29" style="edgeStyle=orthogonalEdgeStyle;rounded=0;orthogonalLoop=1;jettySize=auto;html=1;entryX=0;entryY=0.5;entryDx=0;entryDy=0;" parent="1" source="5PsoJogA0Ilw1T6cmekE-27" target="5PsoJogA0Ilw1T6cmekE-1" edge="1">
          <mxGeometry relative="1" as="geometry">
            <Array as="points">
              <mxPoint x="100" y="330" />
            </Array>
          </mxGeometry>
        </mxCell>
        <mxCell id="5PsoJogA0Ilw1T6cmekE-27" value="error-topic" style="sketch=0;outlineConnect=0;fontColor=#232F3E;gradientColor=none;strokeColor=#232F3E;fillColor=#ffffff;dashed=0;verticalLabelPosition=bottom;verticalAlign=top;align=center;html=1;fontSize=12;fontStyle=0;aspect=fixed;shape=mxgraph.aws4.resourceIcon;resIcon=mxgraph.aws4.topic_2;" parent="1" vertex="1">
          <mxGeometry x="70" y="430" width="60" height="60" as="geometry" />
        </mxCell>
      </root>
    </mxGraphModel>
  </diagram>
</mxfile>
